<?xml version="1.0" encoding="UTF-8"?>
<svg width="102px" height="75px" viewBox="0 0 102 75" version="1.1" xmlns="http://www.w3.org/2000/svg" xmlns:xlink="http://www.w3.org/1999/xlink">
    <!-- Generator: Sketch 50 (54983) - http://www.bohemiancoding.com/sketch -->
    <title>Group</title>
    <desc>Created with Sketch.</desc>
    <defs></defs>
    <g id="Page-1" stroke="none" stroke-width="1" fill="none" fill-rule="evenodd">
        <g id="Home" transform="translate(-669.000000, -165.000000)" fill="#BB1730" fill-rule="nonzero">
            <g id="Logo" transform="translate(608.000000, 27.000000)">
                <g id="Group" transform="translate(61.000000, 138.000000)">
                    <path d="M0.266880734,71.4302326 C2.04024434,70.0621329 3.95866461,68.892343 5.98770642,67.9418605 C8.02495634,66.908995 10.1921058,66.1541715 12.4309174,65.6976744 C14.7308525,65.33808 17.080838,65.4648504 19.3285321,66.0697674 C20.4524124,66.3452901 21.5544917,66.7028416 22.6258716,67.1395349 C23.7211009,67.5930233 24.6998165,68.1976744 25.6552294,68.6976744 C27.603364,69.6895898 29.6203551,70.5406154 31.6906422,71.244186 C33.7363882,71.8779673 35.899429,72.0409619 38.0173394,71.7209302 C40.151439,71.3322903 42.2347113,70.7042768 44.2275229,69.8488372 C45.2295413,69.4418605 46.1150459,69 47.2102752,68.4767442 C48.326407,67.9818654 49.5009115,67.6302237 50.7056881,67.4302326 C53.0673163,66.9242595 55.5096562,66.9242595 57.8712844,67.4302326 C59.0451531,67.7296904 60.1793525,68.1668437 61.2501835,68.7325581 C62.2522018,69.2209302 63.2309174,69.6627907 64.2562385,70.0813953 C66.2606891,70.9270556 68.3151814,71.6493394 70.4081651,72.244186 C72.4563876,72.6685708 74.5701262,72.6685708 76.6183486,72.244186 C78.6986521,71.685462 80.69078,70.8401216 82.5372477,69.7325581 L85.5549541,68.1976744 C86.5505669,67.6296345 87.6005125,67.1622007 88.6891743,66.8023256 C90.8671078,66.1150404 93.1616888,65.8737839 95.4353211,66.0930233 C97.6739331,66.4845045 99.7662656,67.4683293 101.494037,68.9418605 C99.7186396,67.595914 97.6146042,66.7487683 95.400367,66.4883721 C93.1933968,66.4125566 90.9918344,66.75179 88.9105505,67.4883721 C86.8694261,68.3345401 84.9465342,69.440614 83.1897248,70.7790698 C82.2751893,71.4589681 81.3262963,72.0915829 80.346789,72.6744186 C79.3120899,73.2645323 78.2085709,73.7253584 77.0611009,74.0465116 C74.7403804,74.6757981 72.3080086,74.7790948 69.9421101,74.3488372 C68.7985383,74.0959509 67.673526,73.7657315 66.5748624,73.3604651 C65.5145872,72.9883721 64.4543119,72.6162791 63.3940367,72.1976744 C62.3337615,71.7790698 61.2618349,71.3488372 60.2248624,70.8953488 C59.3105134,70.4272828 58.3392472,70.0794257 57.3353211,69.8604651 C55.2890249,69.5079658 53.1947952,69.5395132 51.1600917,69.9534884 C50.1441998,70.1158725 49.1483171,70.3848038 48.1889908,70.755814 C47.1440265,71.2240907 46.0744174,71.6355459 44.9848624,71.9883721 C42.774305,72.6708615 40.5037137,73.1419751 38.2037615,73.3953488 C35.8524637,73.6094801 33.4817698,73.3847178 31.2129358,72.7325581 C30.113277,72.4027614 29.0320443,72.0146121 27.9738532,71.5697674 C26.9037087,71.1684073 25.8606781,70.6984353 24.8512844,70.1627907 C23.8143119,69.627907 22.8938532,69 21.9384404,68.5930233 C20.951094,68.1495385 19.9397385,67.7613391 18.9090826,67.4302326 C16.8603617,66.7199263 14.6859776,66.442736 12.5241284,66.6162791 C10.3332002,66.8887504 8.18930553,67.4559141 6.15082569,68.3023256 C4.07957333,69.1244552 2.10617274,70.1735155 0.266880734,71.4302326 Z" id="Shape"></path>
                    <path d="M51.9174312,9.27906977 C54.4334682,9.27906977 56.4731193,7.24352718 56.4731193,4.73255814 C56.4731193,2.2215891 54.4334682,0.186046512 51.9174312,0.186046512 C49.4013941,0.186046512 47.3617431,2.2215891 47.3617431,4.73255814 C47.3617431,7.24352718 49.4013941,9.27906977 51.9174312,9.27906977" id="Shape"></path>
                    <path d="M50.1231193,58.9069767 C46.2384769,61.4545937 41.686905,62.8015398 37.0386239,62.7790698 C34.5232129,62.7659723 32.0216856,62.4059771 29.6050459,61.7093023 C24.2436419,60.2846691 19.4942921,57.1533911 16.0777982,52.7906977 C14.7275878,51.0618597 13.6437028,49.1414472 12.8620183,47.0930233 C13.9023346,46.2145473 15.0399096,45.4576916 16.2525688,44.8372093 C19.5292602,43.1485792 23.1676197,42.2787279 26.8553211,42.3023256 L27.7524771,42.3023256 C28.6487482,44.2907405 29.7623832,46.1742572 31.0731193,47.9186047 C37.8309174,56.9651163 46.3247706,58.6046512 50.1231193,58.8604651" id="Shape"></path>
                    <path d="M77.3640367,42.3372093 L76.4785321,42.3372093 C75.582261,44.3256242 74.4686259,46.2091409 73.1578899,47.9534884 C66.4233945,56.9767442 58.0111009,58.627907 54.142844,58.8837209 C58.0204157,61.4052622 62.5526576,62.739156 67.1807339,62.7209302 C69.6951029,62.7159906 72.196691,62.3638128 74.6143119,61.6744186 C79.969937,60.2435284 84.7163332,57.1182777 88.1415596,52.7674419 C89.4940078,51.0465808 90.5817788,49.134079 91.3689908,47.0930233 C90.3329141,46.1893418 89.1950954,45.4089111 87.9784404,44.7674419 C84.6948123,43.087539 81.0539143,42.2220248 77.3640367,42.244186" id="Shape"></path>
                    <path d="M46.5927523,53.6162791 C43.1575943,48.7997319 41.3496247,43.0161079 41.4311927,37.1046512 C41.4226026,34.9117868 41.6531026,32.7244982 42.1186239,30.5813953 C38.2315777,27.2115405 33.2846903,25.3067111 28.1369725,25.1976744 L27.4029358,25.1976744 C26.815261,27.3091566 26.5404822,29.4951239 26.5873394,31.6860465 C26.7381772,37.2951663 28.6722747,42.7111331 32.1100917,47.1511628 C38.5066972,55.7093023 46.4995413,57.3023256 50.1231193,57.5465116 C48.8182075,56.367216 47.6461333,55.049339 46.6277064,53.6162791" id="Shape"></path>
                    <path d="M54.2477064,57.5581395 C57.9062385,57.2790698 65.8175229,55.6511628 72.1558716,47.1627907 C75.5405112,42.7074572 77.42852,37.2990133 77.5504587,31.7093023 C77.5973159,29.5183797 77.3225372,27.3324124 76.7348624,25.2209302 L76.0008257,25.2209302 C70.875795,25.3350175 65.9514154,27.2308889 62.0774312,30.5813953 C62.5197097,32.7353996 62.7383572,34.9291605 62.7299083,37.127907 C62.8784482,43.106479 61.0840407,48.9724481 57.6149541,53.8488372 C56.5959934,55.2182682 55.4232124,56.4667147 54.1195413,57.5697674" id="Shape"></path>
                    <path d="M51.9174312,35.8372093 C49.4013941,35.8372093 47.3617431,33.8016667 47.3617431,31.2906977 C47.3617431,28.7797286 49.4013941,26.744186 51.9174312,26.744186 C54.4334682,26.744186 56.4731193,28.7797286 56.4731193,31.2906977 C56.4731193,33.8016667 54.4334682,35.8372093 51.9174312,35.8372093 M56.5779817,21.255814 C55.3361038,19.5304762 53.8210219,18.0184461 52.0922018,16.7790698 C50.3692423,18.0971893 48.8533546,19.6648933 47.5947706,21.4302326 C41.1739326,30.8847599 41.1739326,43.2896587 47.5947706,52.744186 C48.8549591,54.508195 50.3706317,56.0756764 52.0922018,57.3953488 C53.8219496,56.1524684 55.3370838,54.6364586 56.5779817,52.9069767 C59.8546522,48.2811476 61.5428112,42.7210362 61.39,37.0581395 C61.5301974,31.4113662 59.8427483,25.8699033 56.5779817,21.255814" id="Shape"></path>
                </g>
            </g>
        </g>
    </g>
</svg>