<?xml version="1.0" encoding="utf-8"?>
<!-- Generator: Adobe Illustrator 22.0.1, SVG Export Plug-In . SVG Version: 6.00 Build 0)  -->
<svg version="1.1" id="Ebene_1" xmlns="http://www.w3.org/2000/svg" xmlns:xlink="http://www.w3.org/1999/xlink" x="0px" y="0px"
	 viewBox="0 0 218 62" style="enable-background:new 0 0 218 62;" xml:space="preserve">
<style type="text/css">
	.st0{fill:#BB1730;}
</style>
<g>
	<path class="st0" d="M11.6,6h5.6l10.4,44.2h-6l-2.1-8.7H9.3l-2,8.7h-6L11.6,6z M10.5,36.6h7.9l-4-19.2L10.5,36.6z"/>
	<path class="st0" d="M32,6h5.5l11.7,30.7V6h5.6v44.2h-5.6L37.6,19.3v30.9H32V6z"/>
	<path class="st0" d="M62.7,6h5.5l11.7,30.7V6h5.6v44.2H80L68.3,19.3v30.9h-5.6V6z"/>
	<path class="st0" d="M100.3,6h5.6l10.4,44.2h-6l-2.1-8.7H98l-2,8.7h-6L100.3,6z M99.1,36.6h7.9l-4-19.2L99.1,36.6z"/>
	<path class="st0" d="M132.7,6h18.1v5.3h-12.2v13.2h11.2v5.3h-11.2v20.4h-6V6z"/>
	<path class="st0" d="M162.4,50.2h-6V6h7.2c9.2,0,13.3,3,13.3,11.5c0,6.6-2.8,10.2-8.3,10.9l10.5,21.8h-6.4l-10.1-21.6h-0.2V50.2z
		 M164.3,25.3c5.1,0,6.6-2.3,6.6-7.7c0-5-1.9-6.3-6.8-6.3h-1.7v14H164.3z"/>
	<path class="st0" d="M183.2,6h17.7v5.3h-11.7v13.1h10.7v5.3h-10.7v14.9h11.7v5.5h-17.7V6z"/>
	<path class="st0" d="M207.2,6h6v44.2h-6V6z"/>
</g>
</svg>
